<svg width="20" height="20" viewBox="0 0 20 20" fill="none" xmlns="http://www.w3.org/2000/svg">
<path d="M9.99998 19.3657C14.9498 19.3657 18.9625 15.353 18.9625 10.4032C18.9625 5.45332 14.9498 1.44067 9.99998 1.44067C5.05012 1.44067 1.03748 5.45332 1.03748 10.4032C1.03748 15.353 5.05012 19.3657 9.99998 19.3657Z" fill="#D68F30"/>
<path d="M1.64685 12.7313V13.6469C1.7406 13.8891 1.84529 14.1282 1.95935 14.3594V12.7313H1.64685ZM2.66873 14.4547V15.5547C2.79373 15.7313 2.92341 15.9047 3.05935 16.0719V14.4547H2.66873ZM4.02185 15.8922V17.0782C4.17341 17.2141 4.32966 17.3438 4.4906 17.4688V15.8922H4.02185ZM5.68748 16.9844V18.2594C5.8406 18.3438 5.99685 18.4235 6.15623 18.5V16.9844H5.68748ZM7.57654 17.6797V19.0297C7.73123 19.0735 7.88748 19.1125 8.04529 19.1485V17.6797H7.57654ZM9.78748 17.9204V19.3594C9.85779 19.361 9.9281 19.3641 9.99998 19.3641C10.0859 19.3641 10.1719 19.3594 10.2562 19.3579V17.9204H9.78748ZM11.9984 17.6688V19.1375C12.1562 19.1016 12.3125 19.061 12.4672 19.0172V17.6688H11.9984ZM13.8828 16.9641V18.4813C14.0422 18.4047 14.1984 18.3219 14.3515 18.236V16.9641H13.8828ZM15.5437 15.8625V17.4407C15.7045 17.3149 15.8609 17.1836 16.0125 17.0469V15.8625H15.5437ZM17.3578 14.4204H16.9672V16.0375C17.1031 15.8688 17.2344 15.6954 17.3578 15.5172V14.4204ZM18.3734 12.6907H18.0609V14.3219C18.175 14.086 18.2797 13.8438 18.3734 13.5985V12.6907Z" fill="#BC6F00"/>
<path d="M9.99998 18.5594C14.9498 18.5594 18.9625 14.5467 18.9625 9.5969C18.9625 4.64705 14.9498 0.634399 9.99998 0.634399C5.05012 0.634399 1.03748 4.64705 1.03748 9.5969C1.03748 14.5467 5.05012 18.5594 9.99998 18.5594Z" fill="#FFF176"/>
<path d="M10 17.761C14.5089 17.761 18.1641 14.1058 18.1641 9.59692C18.1641 5.08804 14.5089 1.43286 10 1.43286C5.49111 1.43286 1.83594 5.08804 1.83594 9.59692C1.83594 14.1058 5.49111 17.761 10 17.761Z" fill="#F2BC1A"/>
<path d="M1.82031 9.90942C1.7625 8.83442 1.94844 7.7438 2.32344 6.72192C2.71406 5.70317 3.3125 4.76099 4.06719 3.96099C5.58281 2.35786 7.78281 1.42817 10 1.41724C12.2172 1.42974 14.4188 2.35786 15.9313 3.96255C16.6875 4.76099 17.2844 5.70474 17.675 6.72192C18.0516 7.74536 18.2375 8.83442 18.1781 9.90942H18.1469C18.1436 8.83704 17.9313 7.77557 17.5219 6.78442C17.1117 5.79438 16.5125 4.89375 15.7578 4.13286C15.0027 3.37278 14.1055 2.76861 13.1172 2.35474C12.1292 1.94217 11.0691 1.72973 9.99844 1.72973C8.92775 1.72973 7.8677 1.94217 6.87969 2.35474C5.89143 2.76861 4.99419 3.37278 4.23906 4.13286C3.4841 4.8935 2.88487 5.79419 2.475 6.78442C2.06554 7.77557 1.85325 8.83704 1.85 9.90942H1.82031Z" fill="#E08F00"/>
<path d="M9.99998 0.635986C5.04998 0.635986 1.03748 4.64849 1.03748 9.59849C1.03748 14.5485 5.04998 18.561 9.99998 18.561C14.95 18.561 18.9625 14.5485 18.9625 9.59849C18.9625 4.64849 14.95 0.635986 9.99998 0.635986ZM9.99998 17.7625C5.4906 17.7625 1.83591 14.1079 1.83591 9.59849C1.83591 5.08755 5.4906 1.43286 9.99998 1.43286C14.5093 1.43286 18.164 5.08755 18.164 9.59692C18.164 14.1063 14.5093 17.7625 9.99998 17.7625Z" fill="#FFF176"/>
<path d="M5.93589 3.33594L6.13433 3.95L6.7812 3.70313V3.95L6.25776 4.32969L6.45776 4.69531V4.94375L5.93589 4.56406L5.41245 4.94375V4.69531L5.61245 4.32969L5.09058 3.95V3.70313L5.73589 3.95L5.93589 3.33594ZM3.43901 6.86094L3.63901 7.475L4.28433 7.22812V7.475L3.76245 7.85469L3.96245 8.22187V8.46875L3.43901 8.08906L2.91714 8.46875V8.22187L3.11714 7.85469L2.5937 7.475V7.22812L3.24058 7.475L3.43901 6.86094ZM3.36558 11.2063L3.56558 11.8203L4.21089 11.5734V11.8203L3.68901 12.2L3.88901 12.5672V12.8141L3.36558 12.4344L2.8437 12.8141V12.5672L3.0437 12.2L2.52026 11.8203V11.5734L3.16714 11.8203L3.36558 11.2063ZM6.0312 14.6563L6.2312 15.2703L6.87651 15.0234V15.2703L6.35464 15.65L6.55464 16.0156V16.2641L6.0312 15.8844L5.50933 16.2641V16.0156L5.70933 15.65L5.18589 15.2703V15.0234L5.83276 15.2703L6.0312 14.6563ZM14.064 3.33594L13.8656 3.95L13.2187 3.70313V3.95L13.7421 4.32969L13.5421 4.69531V4.94375L14.064 4.56406L14.5875 4.94375V4.69531L14.3875 4.32969L14.9093 3.95V3.70313L14.264 3.95L14.064 3.33594ZM16.5609 6.86094L16.3609 7.475L15.7156 7.22812V7.475L16.2375 7.85469L16.0375 8.22187V8.46875L16.5609 8.08906L17.0828 8.46875V8.22187L16.8828 7.85469L17.4062 7.475V7.22812L16.7593 7.475L16.5609 6.86094ZM16.6343 11.2063L16.4343 11.8203L15.789 11.5734V11.8203L16.3109 12.2L16.1109 12.5672V12.8141L16.6343 12.4344L17.1562 12.8141V12.5672L16.9562 12.2L17.4796 11.8203V11.5734L16.8328 11.8203L16.6343 11.2063ZM13.9687 14.6563L13.7687 15.2703L13.1234 15.0234V15.2703L13.6453 15.65L13.4453 16.0156V16.2641L13.9687 15.8844L14.4906 16.2641V16.0156L14.2906 15.65L14.814 15.2703V15.0234L14.1671 15.2703L13.9687 14.6563Z" fill="#D38200"/>
<path d="M13.9687 14.4078L14.1672 15.0219H14.814L14.2906 15.4016L14.4906 16.0156L13.9687 15.636L13.4453 16.0156L13.6453 15.4016L13.1234 15.0219H13.7687L13.9687 14.4078ZM16.6344 10.9594L16.8328 11.5735H17.4797L16.9562 11.9531L17.1562 12.5672L16.6344 12.1875L16.1109 12.5672L16.3109 11.9531L15.789 11.5735H16.4344L16.6344 10.9594ZM16.5609 6.61409L16.7594 7.22815H17.4062L16.8828 7.60784L17.0828 8.2219L16.5609 7.84221L16.0375 8.2219L16.2375 7.60784L15.7156 7.22815H16.3609L16.5609 6.61409ZM14.064 3.08752L14.264 3.70159H14.9094L14.3875 4.08127L14.5875 4.69534L14.064 4.31565L13.5422 4.69534L13.7422 4.08127L13.2187 3.70159H13.8656L14.064 3.08752Z" fill="#FFF176"/>
<path d="M10.0078 16.0156L10.2078 16.6297L10.8531 16.3828V16.6297L10.3312 17.0094L10.5312 17.3766V17.6234L10.0078 17.2438L9.48591 17.6234V17.3766L9.68591 17.0094L9.16248 16.6297V16.3828L9.80935 16.6297L10.0078 16.0156Z" fill="#D38200"/>
<path d="M10.0078 15.6875L10.2078 16.3016H10.8531L10.3312 16.6813L10.5312 17.2953L10.0078 16.9156L9.48591 17.2953L9.68591 16.6813L9.16248 16.3016H9.80935L10.0078 15.6875Z" fill="#FFF176"/>
<path d="M10.0078 2.01404L10.2078 2.6281L10.8531 2.38123V2.6281L10.3312 3.00779L10.5312 3.37498V3.62185L10.0078 3.24216L9.48591 3.62185V3.37498L9.68591 3.00779L9.16248 2.6281V2.38123L9.80935 2.6281L10.0078 2.01404Z" fill="#D38200"/>
<path d="M10.0078 1.76721L10.2078 2.38127H10.8531L10.3312 2.76096L10.5312 3.37502L10.0078 2.99534L9.48589 3.37502L9.68589 2.76096L9.16245 2.38127H9.80933L10.0078 1.76721ZM6.0312 14.4078L5.83276 15.0219H5.18589L5.70933 15.4016L5.50933 16.0156L6.0312 15.636L6.55464 16.0156L6.35464 15.4016L6.87651 15.0219H6.2312L6.0312 14.4078ZM3.36558 10.9594L3.16714 11.5735H2.52026L3.0437 11.9531L2.8437 12.5672L3.36558 12.1875L3.88901 12.5672L3.68901 11.9531L4.21089 11.5735H3.56558L3.36558 10.9594ZM3.43901 6.61409L3.24058 7.22815H2.5937L3.11714 7.60784L2.91714 8.2219L3.43901 7.84221L3.96245 8.2219L3.76245 7.60784L4.28433 7.22815H3.63901L3.43901 6.61409ZM5.93589 3.08752L5.73589 3.70159H5.09058L5.61245 4.08127L5.41245 4.69534L5.93589 4.31565L6.45776 4.69534L6.25776 4.08127L6.7812 3.70159H6.13433L5.93589 3.08752Z" fill="#FFF176"/>
<path d="M14.8781 7.53126C14.8781 7.47658 5.13123 7.53126 5.13123 7.53126L5.04373 7.79376V8.2422C5.04373 8.32345 5.10935 8.38908 5.1906 8.38908H14.8094C14.8906 8.38908 14.9562 8.32345 14.9562 8.2422V7.80626L14.8781 7.53126ZM14.8922 13.3594H5.17185L4.52185 13.686L4.52966 14.1063C4.53123 14.1516 4.56873 14.1891 4.6156 14.1891H15.3859C15.4312 14.1891 15.4703 14.1531 15.4718 14.1063L15.4797 13.6938L14.8922 13.3594Z" fill="#D38200"/>
<path d="M6.73909 12.0813H6.17971C6.08752 12.0813 6.01252 11.7906 6.01252 11.6984L6.90471 11.6703C6.90471 11.7625 6.82971 12.0813 6.73909 12.0813ZM6.92971 9.06406H5.98752C5.91721 9.06406 5.85627 9.01719 5.83596 8.95L5.76252 8.33594H7.14221L7.07971 8.95C7.06096 9.01719 7.00002 9.06406 6.92971 9.06406ZM5.98752 12.2672H6.92971C7.00002 12.2672 7.13909 12.3109 7.15784 12.3781C7.15784 12.3781 7.15315 12.6703 7.15315 12.7859C7.15315 12.9016 7.10627 12.9859 7.00159 12.9859H5.91565C5.81096 12.9859 5.76409 12.8922 5.76409 12.7859C5.76409 12.6797 5.7594 12.3813 5.7594 12.3813C5.77971 12.3141 5.91721 12.2672 5.98752 12.2672ZM14.0047 12.0813H13.4453C13.3532 12.0813 13.2782 11.7906 13.2782 11.6984L14.1703 11.6703C14.1703 11.7625 14.0969 12.0813 14.0047 12.0813ZM14.1953 9.06406H13.2531C13.1828 9.06406 13.1219 9.01719 13.1016 8.95L13.0281 8.33594H14.4078L14.3453 8.95C14.3266 9.01719 14.2656 9.06406 14.1953 9.06406ZM13.2531 12.2672H14.1953C14.2656 12.2672 14.4047 12.3109 14.4235 12.3781C14.4235 12.3781 14.4188 12.6703 14.4188 12.7859C14.4188 12.9016 14.3719 12.9859 14.2672 12.9859H13.1813C13.0766 12.9859 13.0297 12.8922 13.0297 12.7859C13.0297 12.6797 13.025 12.3813 13.025 12.3813C13.0453 12.3141 13.1828 12.2672 13.2531 12.2672ZM11.5828 12.0813H11.0235C10.9313 12.0813 10.8563 11.7906 10.8563 11.6984L11.7485 11.6703C11.7485 11.7625 11.675 12.0813 11.5828 12.0813ZM11.7735 9.06406H10.8313C10.761 9.06406 10.7 9.01719 10.6797 8.95L10.6063 8.33594H11.986L11.9235 8.95C11.9047 9.01719 11.8438 9.06406 11.7735 9.06406ZM10.8313 12.2672H11.7735C11.8438 12.2672 11.9828 12.3109 12.0016 12.3781C12.0016 12.3781 11.9969 12.6703 11.9969 12.7859C11.9969 12.9016 11.95 12.9859 11.8453 12.9859H10.7594C10.6547 12.9859 10.6078 12.8922 10.6078 12.7859C10.6078 12.6797 10.6031 12.3813 10.6031 12.3813C10.6235 12.3141 10.761 12.2672 10.8313 12.2672ZM9.16096 12.0813H8.60159C8.5094 12.0813 8.4344 11.7906 8.4344 11.6984L9.32659 11.6703C9.32659 11.7625 9.25315 12.0813 9.16096 12.0813ZM9.35159 9.06406H8.4094C8.33909 9.06406 8.27815 9.01719 8.25784 8.95L8.1844 8.33594H9.56409L9.50159 8.95C9.48284 9.01719 9.4219 9.06406 9.35159 9.06406ZM8.4094 12.2672H9.35159C9.4219 12.2672 9.56096 12.3109 9.57971 12.3781C9.57971 12.3781 9.57502 12.6703 9.57502 12.7859C9.57502 12.9016 9.52815 12.9859 9.42346 12.9859H8.33752C8.23284 12.9859 8.18596 12.8922 8.18596 12.7859C8.18596 12.6797 8.18127 12.3813 8.18127 12.3813C8.20159 12.3141 8.33909 12.2672 8.4094 12.2672Z" fill="#D38200"/>
<path d="M14.9484 7.11245C14.9484 7.05776 14.9203 7.0062 14.8781 6.9812L10.0062 4.21558L5.12808 6.97808C5.0812 7.0062 5.05151 7.05776 5.05151 7.11245L5.0437 7.79526C5.0437 7.8812 5.11401 7.95151 5.19995 7.95151H14.7984C14.8843 7.95151 14.9546 7.8812 14.9546 7.79526L14.9484 7.11245Z" fill="#FFF176"/>
<path d="M13.725 6.92656L10 4.8125L6.27502 6.92656H13.725Z" fill="#F2BC1A"/>
<path d="M12.3547 6.6688L10 5.3313L7.64534 6.6688H12.3547ZM14.5922 12.8157H5.40784C5.31722 12.8157 5.23128 12.8547 5.17034 12.9219L4.53909 13.6266C4.49534 13.675 4.52972 13.7516 4.59534 13.7516H15.4047C15.4688 13.7516 15.5032 13.675 15.461 13.6266L14.8282 12.9219C14.7688 12.8547 14.6813 12.8157 14.5922 12.8157ZM14.0047 11.7985H13.4453C13.3532 11.7985 13.2782 11.7235 13.2782 11.6313V9.13442C13.2782 9.04224 13.3532 8.96724 13.4453 8.96724H14.0047C14.0969 8.96724 14.1719 9.04224 14.1719 9.13442V11.6329C14.1719 11.725 14.0969 11.7985 14.0047 11.7985ZM14.1969 8.7813H13.2547C13.1844 8.7813 13.1235 8.73442 13.1032 8.66724L13.0313 8.4188C13.0016 8.3188 13.0782 8.2188 13.1828 8.2188H14.2688C14.3735 8.2188 14.4485 8.3188 14.4203 8.4188L14.3485 8.66724C14.3282 8.73442 14.2657 8.7813 14.1969 8.7813ZM13.2532 11.986H14.1953C14.2657 11.986 14.3266 12.0329 14.3469 12.1L14.4188 12.3485C14.4485 12.4485 14.3719 12.5485 14.2672 12.5485H13.1813C13.0766 12.5485 13.0016 12.4485 13.0297 12.3485L13.1016 12.1C13.1219 12.0313 13.1844 11.986 13.2532 11.986ZM6.73909 11.7985H6.17972C6.08753 11.7985 6.01253 11.7235 6.01253 11.6313V9.13442C6.01253 9.04224 6.08753 8.96724 6.17972 8.96724H6.73909C6.83128 8.96724 6.90628 9.04224 6.90628 9.13442V11.6329C6.90472 11.725 6.82972 11.7985 6.73909 11.7985ZM6.92972 8.7813H5.98753C5.91722 8.7813 5.85628 8.73442 5.83597 8.66724L5.76409 8.4188C5.7344 8.3188 5.81097 8.2188 5.91565 8.2188H7.00159C7.10628 8.2188 7.18128 8.3188 7.15315 8.4188L7.08128 8.66724C7.06097 8.73442 7.00003 8.7813 6.92972 8.7813ZM5.98753 11.986H6.92972C7.00003 11.986 7.06097 12.0329 7.08128 12.1L7.15315 12.3485C7.18284 12.4485 7.10628 12.5485 7.00159 12.5485H5.91565C5.81097 12.5485 5.73597 12.4485 5.76409 12.3485L5.83597 12.1C5.85628 12.0313 5.91722 11.986 5.98753 11.986ZM9.16097 11.7985H8.60159C8.5094 11.7985 8.4344 11.7235 8.4344 11.6313V9.13442C8.4344 9.04224 8.5094 8.96724 8.60159 8.96724H9.16097C9.25315 8.96724 9.32815 9.04224 9.32815 9.13442V11.6329C9.32774 11.6769 9.30995 11.7191 9.27864 11.7501C9.24733 11.7811 9.20504 11.7985 9.16097 11.7985ZM9.35159 8.7813H8.4094C8.33909 8.7813 8.27815 8.73442 8.25784 8.66724L8.18597 8.4188C8.15628 8.3188 8.23284 8.2188 8.33753 8.2188H9.42347C9.52815 8.2188 9.60315 8.3188 9.57503 8.4188L9.50315 8.66724C9.48284 8.73442 9.4219 8.7813 9.35159 8.7813ZM8.4094 11.986H9.35159C9.4219 11.986 9.48284 12.0329 9.50315 12.1L9.57503 12.3485C9.60472 12.4485 9.52815 12.5485 9.42347 12.5485H8.33753C8.23284 12.5485 8.15784 12.4485 8.18597 12.3485L8.25784 12.1C8.27815 12.0313 8.33909 11.986 8.4094 11.986ZM11.5828 11.7985H11.0235C10.9313 11.7985 10.8563 11.7235 10.8563 11.6313V9.13442C10.8563 9.04224 10.9313 8.96724 11.0235 8.96724H11.5828C11.675 8.96724 11.75 9.04224 11.75 9.13442V11.6329C11.7496 11.6769 11.7318 11.7191 11.7005 11.7501C11.6692 11.7811 11.6269 11.7985 11.5828 11.7985ZM11.7735 8.7813H10.8313C10.761 8.7813 10.7 8.73442 10.6797 8.66724L10.6078 8.4188C10.5782 8.3188 10.6547 8.2188 10.7594 8.2188H11.8453C11.95 8.2188 12.025 8.3188 11.9969 8.4188L11.925 8.66724C11.9047 8.73442 11.8438 8.7813 11.7735 8.7813ZM10.8313 11.986H11.7735C11.8438 11.986 11.9047 12.0329 11.925 12.1L11.9969 12.3485C12.0266 12.4485 11.95 12.5485 11.8453 12.5485H10.7594C10.6547 12.5485 10.5797 12.4485 10.6078 12.3485L10.6797 12.1C10.7 12.0313 10.7625 11.986 10.8313 11.986Z" fill="#FFF176"/>
</svg>
